<svg xmlns="http://www.w3.org/2000/svg" fill="none" viewBox="0 0 120 120"><rect width="114" height="114" x="3" y="3" stroke="#6ADAAB" stroke-width="6" rx="57"/><path fill="#6ADAAB" d="M52.4 72.3c0-1.9-.5-3.4-1.7-4.6-1-1.2-3-2.2-5.6-3.2-2.6-1-4.6-1.8-6-2.7A12.9 12.9 0 0 1 31.6 50c0-3.5 1.1-6.5 3.2-8.8 2.1-2.3 4.3-3.6 8-4V30h5.5v7c3.6.6 6.4 2.2 8.4 4.9 2 2.6 3 6 3 10.2h-7.6a11 11 0 0 0-1.7-6.4 5.6 5.6 0 0 0-4.8-2.3c-2 0-3.6.5-4.7 1.7-1.1 1-1.7 2.7-1.7 4.8 0 1.8.6 3.3 1.7 4.5 1.1 1 3 2.1 5.7 3.2 2.6 1 4.7 1.9 6.2 2.8a14.5 14.5 0 0 1 6.3 6.7c.5 1.5.8 3.2.8 5 0 3.7-1 6.7-3.2 9a13 13 0 0 1-8.6 4V90h-5.4v-5a14 14 0 0 1-9.5-4.5c-2.2-2.6-3.3-6-3.3-10.3h7.6c0 2.7.6 4.8 2 6.3a7.2 7.2 0 0 0 5.6 2.2c2.3 0 4.1-.6 5.4-1.7a6.2 6.2 0 0 0 1.8-4.7ZM70 55h5v15h-5zm10-5h5v25h-5zm10-5h5v35h-5z"/></svg>