<svg xmlns="http://www.w3.org/2000/svg" fill="none" viewBox="0 0 26 34"><path fill="#6A6A6A" d="M8.84 21.66c0-.72-.22-1.32-.66-1.78a5.65 5.65 0 0 0-2.22-1.27 17.52 17.52 0 0 1-2.4-1.06 5.08 5.08 0 0 1-2.87-4.7c0-1.4.41-2.56 1.24-3.47A4.6 4.6 0 0 1 5.05 7.8V5h2.22v2.8c1.42.2 2.52.83 3.3 1.88a6.54 6.54 0 0 1 1.17 4.04H8.77a4.1 4.1 0 0 0-.7-2.52 2.22 2.22 0 0 0-1.89-.93c-.78 0-1.4.22-1.84.66-.44.44-.66 1.08-.66 1.9 0 .73.21 1.33.65 1.78a6.5 6.5 0 0 0 2.24 1.25c1.04.4 1.87.77 2.47 1.1.6.35 1.1.74 1.5 1.18.42.43.73.93.96 1.5.22.56.33 1.23.33 2 0 1.42-.43 2.58-1.28 3.47a5.1 5.1 0 0 1-3.39 1.6v1.94h-2.1V26.7a5.57 5.57 0 0 1-3.76-1.8A6 6 0 0 1 0 20.86h2.99c0 1.06.26 1.89.77 2.47a2.8 2.8 0 0 0 2.21.88c.94 0 1.65-.23 2.13-.7.5-.46.74-1.08.74-1.85Zm6.93-6.8h1.97v5.91h-1.97zm3.94-1.98h1.97v9.86h-1.97zm3.94-1.97h1.97v13.8h-1.97z"/></svg>